<svg width="681" height="213" viewBox="0 0 681 213" fill="none" xmlns="http://www.w3.org/2000/svg">
<path d="M137.124 65.2987C140.754 65.2987 144.384 65.2987 148.014 65.2987C148.484 65.2987 148.944 65.3287 149.414 65.2987C150.694 65.1987 151.554 65.6187 151.864 66.9687C152.094 67.9687 152.604 68.8587 153.174 69.7187C155.434 73.1487 158.784 74.7987 162.684 75.4687C165.904 76.0187 169.164 76.1387 172.414 75.5587C173.714 75.3287 174.944 74.9287 176.054 74.2287C178.834 72.4787 179.264 68.2487 176.244 66.2487C174.994 65.4187 173.674 64.7587 172.214 64.3887C167.794 63.2887 163.384 62.1687 158.954 61.0787C153.714 59.7887 148.474 58.5487 143.514 56.3387C140.354 54.9287 137.444 53.1487 134.774 50.9187C130.894 47.6787 128.584 43.5187 127.544 38.6587C126.344 33.0987 126.594 27.5587 128.244 22.1187C130.684 14.0587 136.164 8.57867 143.454 4.78867C149.064 1.86867 155.124 0.548672 161.414 0.148672C168.244 -0.281328 174.984 0.188673 181.604 1.98867C185.664 3.08867 189.604 4.55867 193.234 6.62867C201.024 11.0487 205.774 17.8087 207.804 26.4887C208.164 28.0187 208.344 29.5987 208.554 31.1587C208.644 31.8187 208.294 32.1687 207.584 32.2187C206.934 32.2687 206.284 32.2587 205.634 32.2587C198.094 32.2587 190.554 32.2587 183.014 32.2587C182.544 32.2587 182.084 32.2487 181.614 32.2487C180.684 32.2487 179.964 31.9887 179.804 30.9287C179.794 30.8387 179.744 30.7487 179.714 30.6687C177.964 25.5287 174.224 23.1687 168.924 22.9987C166.864 22.9287 164.834 23.0387 162.864 23.7187C161.704 24.1187 160.644 24.6887 159.784 25.5687C157.364 28.0087 157.734 31.8387 160.564 33.8087C161.734 34.6187 163.064 35.0487 164.414 35.3987C168.194 36.3587 171.994 37.2687 175.784 38.2087C181.014 39.5087 186.294 40.6287 191.324 42.6487C195.154 44.1887 198.704 46.1887 201.874 48.8287C205.424 51.7887 207.664 55.6187 208.704 60.0787C210.134 66.1887 209.944 72.2587 207.824 78.2087C206.394 82.2187 204.074 85.6187 200.954 88.5587C195.784 93.4287 189.634 96.3187 182.804 97.8587C175.024 99.6187 167.124 99.9287 159.214 98.9387C152.894 98.1487 146.854 96.3687 141.144 93.4887C133.174 89.4687 127.814 83.2387 125.054 74.7587C124.224 72.1987 123.414 69.6187 123.034 66.9387C122.864 65.7287 123.114 65.3887 124.284 65.3287C125.304 65.2787 126.334 65.2987 127.354 65.2987C130.614 65.2987 133.874 65.2987 137.124 65.2987Z" fill="#FFEB00"/>
<path d="M315.634 30.6387C315.634 38.4487 315.674 46.2587 315.614 54.0587C315.574 59.3787 314.794 64.6187 313.324 69.7387C311.904 74.6887 309.754 79.2787 306.624 83.4187C301.804 89.7887 295.594 94.1587 288.064 96.6487C280.364 99.1987 272.444 99.8587 264.374 99.2187C259.434 98.8287 254.604 97.9687 249.944 96.2687C242.854 93.6787 237.014 89.4487 232.444 83.4187C228.244 77.8787 225.864 71.6087 224.574 64.8587C223.734 60.4587 223.384 56.0287 223.384 51.5487C223.394 36.0287 223.384 20.4987 223.384 4.97867C223.384 4.41867 223.384 3.85868 223.414 3.30868C223.474 2.42868 223.754 2.11868 224.574 2.05868C225.224 2.00868 225.874 2.01867 226.524 2.01867C234.064 2.01867 241.604 2.01867 249.134 2.01867C249.784 2.01867 250.434 2.03867 251.084 2.08867C251.624 2.12867 251.934 2.47868 251.974 2.98868C252.034 3.91868 252.044 4.84867 252.044 5.77867C252.044 21.0187 252.044 36.2687 252.044 51.5087C252.044 54.4987 252.324 57.4487 253.064 60.3487C253.574 62.3387 254.384 64.2087 255.494 65.9487C258.064 69.9587 261.794 72.1187 266.454 72.8587C269.074 73.2787 271.674 73.1787 274.214 72.5587C279.364 71.3087 282.894 68.1087 284.984 63.2687C286.404 59.9687 286.844 56.4787 287.004 52.9287C287.054 51.8187 287.014 50.6987 287.014 49.5787C287.014 34.8887 287.014 20.2087 287.014 5.51867C287.014 1.69867 286.834 2.01867 290.464 2.01867C297.904 2.01867 305.354 2.01867 312.794 2.01867C315.734 2.01867 315.664 1.97867 315.664 4.97867C315.664 13.5287 315.664 22.0787 315.664 30.6287H315.634V30.6387Z" fill="#FFEB00"/>
<path d="M599.864 165.089C599.864 150.579 599.864 136.079 599.864 121.569C599.864 120.829 599.854 120.079 599.864 119.339C599.914 117.569 599.984 117.509 601.814 117.459C602.284 117.449 602.744 117.459 603.214 117.459C625.934 117.459 648.644 117.459 671.364 117.459C675.134 117.459 674.814 117.099 674.824 120.899C674.834 126.569 674.824 132.249 674.824 137.919C674.824 138.659 674.794 139.409 674.754 140.149C674.724 140.699 674.334 140.999 673.854 141.039C672.834 141.119 671.814 141.139 670.784 141.139C657.844 141.139 644.904 141.139 631.964 141.139C628.044 141.139 628.474 140.979 628.454 144.569C628.434 147.169 628.434 149.779 628.474 152.379C628.494 153.579 628.754 153.819 629.964 153.879C630.804 153.919 631.644 153.909 632.474 153.909C643.274 153.909 654.074 153.909 664.874 153.909C668.454 153.909 668.214 153.789 668.214 157.249C668.214 162.639 668.214 168.039 668.214 173.429C668.214 174.169 668.204 174.919 668.164 175.659C668.134 176.179 667.844 176.529 667.304 176.549C666.464 176.589 665.634 176.609 664.794 176.609C653.804 176.609 642.824 176.609 631.834 176.609C628.214 176.609 628.454 176.299 628.444 179.859C628.444 182.459 628.444 185.069 628.474 187.669C628.494 188.699 628.774 188.959 629.824 189.019C630.664 189.069 631.494 189.059 632.334 189.059C645.274 189.059 658.214 189.059 671.154 189.059C675.234 189.059 674.804 188.899 674.814 192.639C674.834 198.309 674.814 203.989 674.814 209.659C674.814 210.399 674.794 211.149 674.744 211.889C674.704 212.419 674.354 212.719 673.834 212.749C673.184 212.799 672.534 212.799 671.884 212.799C648.884 212.799 625.894 212.799 602.894 212.799C602.614 212.799 602.334 212.799 602.054 212.799C599.954 212.749 599.874 212.709 599.864 210.569C599.844 203.319 599.864 196.059 599.864 188.809C599.864 180.909 599.864 172.999 599.864 165.099V165.089Z" fill="#FFEB00"/>
<path d="M1.01386 170.639C1.01386 157.999 1.01386 145.359 1.01386 132.709C1.01386 132.149 1.06386 131.589 1.01386 131.039C0.843863 129.599 1.39386 128.639 2.59386 127.759C7.17386 124.409 11.6639 120.939 16.2039 117.529C20.4439 114.349 24.7039 111.199 28.9439 108.009C37.1939 101.799 45.4339 95.5787 53.6739 89.3687C62.5839 82.6487 71.4939 75.9387 80.4039 69.2187C82.4439 67.6787 82.2039 67.7787 84.1639 69.2687C89.5039 73.3087 94.8639 77.3187 100.214 81.3487C112.394 90.5287 124.564 99.7187 136.744 108.909C140.084 111.429 143.444 113.919 146.754 116.479C147.614 117.149 148.484 117.449 149.564 117.439C153.004 117.399 156.454 117.419 159.894 117.439C160.634 117.439 161.384 117.449 162.124 117.499C162.634 117.529 162.994 117.809 163.044 118.349C163.094 118.899 163.114 119.459 163.114 120.019C163.114 126.159 163.114 132.289 163.114 138.429C163.114 138.889 163.114 139.359 163.084 139.819C163.024 140.669 162.724 140.989 161.904 141.069C161.444 141.119 160.974 141.129 160.514 141.129C156.794 141.129 153.064 141.099 149.344 141.149C147.884 141.169 146.684 140.769 145.494 139.869C139.334 135.219 133.104 130.659 126.904 126.059C116.674 118.469 106.444 110.879 96.2038 103.289C91.8738 100.079 87.5239 96.8887 83.1739 93.6987C81.9639 92.8187 81.9339 92.8087 80.7639 93.6987C76.4739 96.9687 72.1939 100.259 67.9139 103.529C54.7539 113.569 41.5939 123.619 28.4339 133.659C26.7339 134.959 25.0439 136.269 23.2939 137.509C22.2239 138.269 21.6239 139.169 21.7639 140.539C21.8539 141.369 21.7739 142.209 21.7739 143.049C21.7739 164.899 21.7839 186.739 21.7739 208.589C21.7739 213.399 22.3139 212.779 17.6939 212.809C13.3239 212.839 8.94386 212.809 4.57386 212.809C4.29386 212.809 4.01386 212.809 3.73386 212.809C1.95386 212.789 1.05385 211.845 1.03385 209.979C1.03385 209.049 1.03385 208.119 1.03385 207.189C1.03385 195.009 1.03385 182.829 1.03385 170.659L1.01386 170.639Z" fill="#FFEB00"/>
<path d="M628.704 39.0787C629.544 38.5387 629.794 37.7087 630.184 36.9887C635.264 27.6887 640.324 18.3887 645.404 9.08866C646.474 7.12866 647.614 5.21866 648.684 3.25866C649.124 2.44866 649.704 1.97866 650.674 2.03866C651.234 2.07866 651.794 2.03866 652.344 2.03866C660.814 2.03866 669.284 2.03866 677.744 2.03866C678.394 2.03866 679.044 2.04866 679.694 2.11866C680.174 2.16866 680.284 2.57866 680.134 2.93866C679.764 3.78866 679.334 4.61866 678.894 5.42866C673.924 14.5687 668.924 23.6987 663.964 32.8487C658.434 43.0587 652.944 53.2987 647.424 63.5187C646.324 65.5587 645.204 67.5987 644.024 69.5987C643.294 70.8387 643.004 72.1187 643.024 73.5687C643.104 80.4487 643.114 87.3287 643.134 94.1987C643.134 97.6187 643.334 97.3487 639.954 97.3487C632.604 97.3487 625.254 97.3487 617.904 97.3487C617.164 97.3487 616.414 97.3487 615.674 97.2987C615.124 97.2687 614.854 96.9087 614.814 96.3887C614.764 95.7387 614.734 95.0887 614.734 94.4387C614.684 87.5587 614.614 80.6887 614.624 73.8087C614.624 72.1787 614.314 70.7487 613.524 69.2987C608.614 60.3287 603.794 51.3187 598.934 42.3287C596.104 37.0987 593.274 31.8687 590.424 26.6487C586.374 19.2287 582.304 11.8187 578.254 4.39866C577.984 3.90866 577.744 3.40866 577.554 2.88866C577.404 2.47866 577.604 2.13866 578.034 2.08866C578.584 2.01866 579.144 2.02866 579.704 2.02866C588.454 2.02866 597.194 2.02866 605.944 2.02866C606.414 2.02866 606.874 2.05866 607.344 2.04866C608.194 2.02866 608.724 2.44866 609.084 3.18866C609.404 3.85866 609.784 4.49866 610.134 5.15866C615.454 15.0587 620.774 24.9687 626.114 34.8687C626.894 36.3187 627.634 37.8187 628.724 39.0887L628.704 39.0787Z" fill="#FFEB00"/>
<path d="M216.454 117.449C229.664 117.449 242.884 117.449 256.094 117.449C259.524 117.449 259.444 117.109 259.444 120.759C259.444 126.709 259.444 132.659 259.444 138.609C259.444 142.299 259.614 141.979 256.174 141.989C248.634 141.999 241.104 141.989 233.564 141.989C230.604 141.989 230.724 141.849 230.724 144.919C230.724 166.299 230.724 187.679 230.724 209.049C230.724 213.179 231.124 212.769 226.984 212.779C219.544 212.799 212.094 212.789 204.654 212.779C202.084 212.779 202.054 212.749 202.054 210.109C202.054 188.729 202.054 167.349 202.054 145.979C202.054 144.959 202.024 143.939 201.974 142.919C201.944 142.399 201.634 142.059 201.094 142.029C200.354 141.989 199.604 141.989 198.864 141.989C191.514 141.989 184.164 141.989 176.814 141.989C176.074 141.989 175.324 141.999 174.584 141.969C173.544 141.919 173.354 141.709 173.294 140.589C173.264 140.029 173.274 139.479 173.274 138.919C173.274 132.789 173.274 126.649 173.274 120.519C173.274 119.869 173.274 119.219 173.314 118.569C173.344 117.929 173.674 117.519 174.344 117.499C175.184 117.469 176.014 117.459 176.854 117.459C190.064 117.459 203.284 117.459 216.494 117.459L216.454 117.449Z" fill="#FFEB00"/>
<path d="M80.1939 212.789C70.0439 212.789 59.9038 212.789 49.7538 212.789C47.1638 212.789 47.1439 212.759 47.1239 210.149C47.1039 207.729 47.1639 205.309 47.1039 202.899C47.0739 201.619 47.4439 200.579 48.2939 199.609C50.7339 196.799 53.0938 193.919 55.5038 191.089C61.6038 183.949 67.7139 176.809 73.8139 169.669C76.0439 167.049 78.2439 164.409 80.5139 161.819C81.9339 160.199 83.0739 158.399 84.1339 156.539C84.8839 155.229 85.2939 153.789 85.1839 152.269C84.9839 149.349 82.8839 146.969 79.9539 146.549C75.0639 145.849 71.8139 147.969 70.5839 152.049C70.4739 152.409 70.4039 152.769 70.3039 153.129C70.1639 153.629 69.8239 153.919 69.3139 153.969C68.7639 154.019 68.2038 154.039 67.6438 154.039C61.2238 154.039 54.8039 154.039 48.3739 154.039C47.9039 154.039 47.4439 154.039 46.9739 153.999C46.0839 153.929 45.8239 153.649 45.7939 152.789C45.7339 151.109 45.9639 149.449 46.3239 147.809C46.9239 145.079 47.6639 142.399 48.8339 139.849C52.1539 132.599 57.7239 127.819 65.2039 125.239C70.1039 123.549 75.1939 123.069 80.3339 123.239C85.1939 123.399 89.9438 124.169 94.5138 125.939C98.8438 127.619 102.614 130.149 105.844 133.409C111.274 138.899 113.464 145.629 112.774 153.269C112.494 156.369 111.304 159.209 109.784 161.899C108.354 164.409 106.694 166.759 104.934 169.049C99.7139 175.839 94.0839 182.279 88.5739 188.819C88.0339 189.459 87.5238 190.119 87.0338 190.789C86.8038 191.099 87.0539 191.549 87.4639 191.569C88.2039 191.599 88.9539 191.619 89.6939 191.619C96.5839 191.619 103.464 191.619 110.354 191.619C111.094 191.619 111.844 191.639 112.584 191.689C113.124 191.719 113.414 192.079 113.464 192.589C113.524 193.139 113.534 193.699 113.534 194.259C113.534 199.559 113.534 204.859 113.534 210.159C113.534 210.719 113.534 211.279 113.464 211.829C113.404 212.329 113.114 212.689 112.564 212.719C111.724 212.759 110.894 212.789 110.054 212.789C100.094 212.789 90.1338 212.789 80.1738 212.789H80.1939Z" fill="#FFEB00"/>
<path d="M517.274 49.3386C517.274 34.6486 517.274 19.9586 517.274 5.25864C517.274 1.87864 517.054 2.01864 520.414 2.01864C527.954 2.01864 535.494 2.01864 543.034 2.01864C545.514 2.01864 545.564 2.07864 545.584 4.48864C545.604 9.32864 545.584 14.1586 545.584 18.9986C545.584 35.8286 545.584 52.6586 545.584 69.4886C545.584 73.1886 545.374 72.9286 549.104 72.9286C561.954 72.9286 574.794 72.9286 587.644 72.9286C591.434 72.9286 591.084 72.7186 591.094 76.4186C591.104 82.2786 591.094 88.1386 591.094 93.9886C591.094 94.7286 591.084 95.4786 591.054 96.2186C591.034 96.8586 590.714 97.2686 590.044 97.2886C589.114 97.3186 588.184 97.3186 587.254 97.3186C567.514 97.3186 547.784 97.3186 528.044 97.3186C525.434 97.3186 522.834 97.3186 520.224 97.3186C517.064 97.3186 517.274 97.5286 517.264 94.2286C517.264 93.6686 517.264 93.1086 517.264 92.5586C517.264 78.1486 517.264 63.7286 517.264 49.3186L517.274 49.3386Z" fill="#FFEB00"/>
<path d="M274.214 117.458C288.544 117.458 302.874 117.398 317.204 117.498C323.834 117.548 330.354 118.558 336.604 120.958C341.004 122.648 344.964 125.059 348.363 128.288C353.553 133.208 356.424 139.379 357.424 146.389C358.074 151.009 358.054 155.679 356.974 160.248C355.284 167.428 351.804 173.549 345.854 178.099C344.464 179.159 343.064 180.209 341.534 181.369H341.544C343.084 183.519 344.524 185.568 345.994 187.588C346.974 188.938 348.024 190.249 349.004 191.599C353.504 197.759 357.984 203.919 362.464 210.078C362.904 210.678 363.314 211.299 363.704 211.929C363.914 212.259 363.673 212.709 363.274 212.739C362.624 212.779 361.973 212.798 361.323 212.798H332.573C332.294 212.798 332.013 212.768 331.734 212.798C330.504 212.918 329.664 212.459 328.964 211.389C326.914 208.289 324.744 205.268 322.634 202.208C319.684 197.918 316.714 193.648 313.814 189.328C313.074 188.229 312.284 187.639 310.884 187.689C307.914 187.779 304.934 187.699 301.954 187.739C300.574 187.759 300.414 187.949 300.354 189.399C300.314 190.329 300.334 191.259 300.334 192.189C300.334 198.229 300.344 204.269 300.334 210.309C300.334 212.769 300.284 212.798 297.844 212.798C290.024 212.808 282.214 212.798 274.394 212.798C273.924 212.798 273.464 212.799 272.994 212.769C272.094 212.709 271.794 212.458 271.724 211.628C271.664 210.888 271.674 210.139 271.674 209.399V121.008C271.674 120.078 271.724 119.159 271.804 118.229C271.834 117.839 272.134 117.569 272.544 117.529C273.094 117.479 273.654 117.458 274.214 117.458ZM302.524 141.418C302.154 141.418 301.784 141.438 301.414 141.458C300.734 141.498 300.444 141.919 300.403 142.538C300.363 143.188 300.344 143.839 300.344 144.489V159.788C300.344 160.428 300.364 161.079 300.424 161.729C300.474 162.239 300.784 162.559 301.314 162.609C301.584 162.639 301.864 162.668 302.144 162.668C307.064 162.658 311.994 162.739 316.914 162.599C320.784 162.489 324.124 161.029 326.714 158.029C329.894 154.339 329.723 148.838 326.283 145.418C324.954 144.089 323.404 143.088 321.624 142.458C319.774 141.798 317.873 141.418 315.903 141.418H302.524Z" fill="#FFEB00"/>
<path d="M535.914 117.449C542.934 117.469 549.814 118.409 556.504 120.649C565.674 123.719 573.264 129.039 579.264 136.589C583.024 141.328 585.434 146.749 586.754 152.629C588.984 162.559 588.684 172.389 585.414 182.059C582.354 191.109 576.544 198.078 568.744 203.468C560.974 208.848 552.264 211.489 542.934 212.379C539.404 212.719 535.874 212.789 532.334 212.789H497.984C494.834 212.789 494.914 212.978 494.914 209.758V164.849H494.925V120.769C494.925 117.099 494.674 117.449 498.214 117.449C510.783 117.449 523.354 117.409 535.914 117.449ZM539.124 142.629C534.404 142.129 529.634 142.429 524.894 142.459C523.714 142.469 523.534 142.729 523.474 144.019C523.434 144.759 523.454 145.509 523.454 146.249V164.929H523.474V184.169C523.474 184.909 523.454 185.659 523.494 186.399C523.544 187.479 523.754 187.739 524.814 187.739C529.374 187.739 533.954 188.009 538.484 187.619C546.774 186.909 553.024 182.769 556.764 175.249C558.834 171.069 559.284 166.589 558.834 161.939C557.894 152.179 549.784 143.759 539.124 142.629Z" fill="#FFEB00"/>
<path d="M418.104 116.859C426.014 116.949 433.924 116.899 441.844 116.899C442.214 116.899 442.584 116.918 442.964 116.908C443.574 116.908 444.024 117.139 444.264 117.738C444.544 118.428 444.874 119.098 445.154 119.788C446.754 123.658 448.324 127.529 449.934 131.389C453.864 140.829 457.814 150.259 461.754 159.689C464.874 167.148 467.994 174.609 471.114 182.068C474.414 189.958 477.714 197.839 481.034 205.729C481.754 207.439 482.524 209.139 483.274 210.839C484.114 212.739 483.594 212.809 482.084 212.809H456.944C456.204 212.809 455.454 212.778 454.714 212.788C454.084 212.788 453.644 212.529 453.394 211.959C453.014 211.109 452.614 210.269 452.284 209.399C451.254 206.709 450.274 203.999 449.254 201.309C448.434 199.159 448.424 199.158 446.034 199.118H414.194C411.084 199.118 411.374 198.919 410.284 201.919C409.134 205.059 407.974 208.199 406.874 211.359C406.514 212.389 405.924 212.889 404.824 212.799C404.364 212.759 403.894 212.799 403.424 212.799H376.314L376.304 212.788C376.104 211.659 376.484 211.089 376.734 210.509C382.584 196.439 388.444 182.359 394.314 168.299C397.144 161.519 399.984 154.758 402.824 147.988C406.414 139.418 409.984 130.839 413.584 122.269C414.054 121.159 414.684 120.109 415.064 118.969C415.564 117.439 416.404 116.839 418.104 116.859ZM429.934 150.109C429.874 150.079 429.794 150.129 429.714 150.129C428.724 151.87 422.764 167.519 420.534 174.259C420.364 174.779 420.064 175.289 420.364 175.948C420.664 176.008 421.024 176.148 421.373 176.149C427.133 176.159 432.894 176.149 438.654 176.129C438.914 176.129 439.174 175.969 439.413 175.889H439.404C439.444 175.669 439.534 175.469 439.494 175.309C439.364 174.769 439.204 174.239 439.004 173.719C436.054 165.909 433.094 158.099 430.134 150.299C430.094 150.219 430.014 150.149 429.934 150.109Z" fill="#FFEB00"/>
<path d="M331.584 2.02829C344.144 2.02829 356.714 1.9888 369.274 2.0488C375.534 2.07881 381.714 2.78902 387.694 4.74899C393.334 6.59899 398.384 9.44902 402.614 13.709C406.804 17.9288 409.474 22.9285 410.734 28.6982C412.354 36.0982 412.214 43.469 410.054 50.749C407.534 59.2287 402.064 65.2986 394.404 69.5185C388.094 72.9985 381.244 74.5283 374.124 75.0683C369.204 75.4483 364.264 75.3489 359.334 75.3789C356.894 75.3889 356.864 75.4189 356.854 77.8789C356.834 82.7088 356.854 87.5489 356.844 92.3789C356.844 93.3088 356.854 94.239 356.844 95.1689C356.804 97.2987 356.794 97.3388 354.634 97.3388C346.634 97.3488 338.624 97.3388 330.624 97.3388C330.344 97.3388 330.064 97.3383 329.784 97.3183C328.754 97.2483 328.564 97.0587 328.514 95.9189C328.474 95.0791 328.494 94.249 328.494 93.4091V49.6289L328.484 49.6386V5.85837C328.484 5.01847 328.464 4.1885 328.514 3.3486C328.564 2.33866 328.824 2.1188 329.914 2.0488C330.474 2.0188 331.034 2.02829 331.584 2.02829ZM359.614 25.9882C359.064 25.9882 358.504 25.9983 357.944 26.0283C357.284 26.0583 356.944 26.4588 356.894 27.0888C356.844 27.7388 356.844 28.3891 356.844 29.039V38.5185H356.854C356.854 42.1484 356.824 45.7685 356.854 49.3984C356.864 51.2883 357.004 51.4087 358.973 51.4287C362.133 51.4487 365.304 51.4791 368.464 51.4091C369.944 51.3791 371.444 51.2284 372.894 50.9384C377.154 50.0784 380.494 47.9285 382.124 43.7187C383.054 41.3387 383.324 38.8583 382.934 36.3183C382.194 31.5185 379.464 28.4387 374.864 26.9687C372.814 26.3187 370.714 25.9882 368.554 25.9882H359.614Z" fill="#FFEB00"/>
<path d="M426.313 2.02826C438.693 2.02826 451.074 1.98901 463.464 2.03901C469.724 2.06901 475.904 2.75865 481.904 4.67865C490.174 7.32864 496.903 12.0087 501.553 19.4384C503.343 22.2983 504.504 25.4384 505.214 28.7382C506.784 36.0481 506.674 43.3284 504.584 50.5283C502.384 58.0881 497.734 63.8384 491.194 68.1083C485.714 71.6883 479.634 73.569 473.214 74.539C467.484 75.399 461.714 75.3791 455.944 75.3691C454.734 75.3691 453.523 75.3887 452.313 75.4287C451.673 75.4488 451.264 75.7991 451.214 76.4589C451.164 77.2888 451.143 78.1288 451.143 78.9687C451.143 84.2687 451.153 89.5691 451.133 94.8691C451.133 97.3186 451.093 97.3388 448.664 97.3388C440.844 97.3488 433.024 97.3388 425.204 97.3388C424.744 97.3388 424.273 97.329 423.813 97.289C423.283 97.2489 422.944 96.9585 422.914 96.4287C422.864 95.5987 422.853 94.7588 422.853 93.9189V49.5585L422.824 49.5683V5.48822C422.824 1.76882 422.544 2.02824 426.313 2.02826ZM467.954 26.539C462.694 25.539 457.383 26.0788 452.093 26.0488C451.554 26.0388 451.264 26.4684 451.204 26.9482C451.124 27.5981 451.114 28.2485 451.114 28.8984V38.6591L451.106 43.6591C451.104 45.3315 451.104 47.0038 451.114 48.6787C451.134 51.3487 451.184 51.3989 453.704 51.4189C456.774 51.4389 459.844 51.4684 462.914 51.3984C464.394 51.3684 465.894 51.2289 467.343 50.9189C470.313 50.2789 472.984 49.0488 474.944 46.5888C476.634 44.4688 477.334 41.9885 477.504 39.3486C477.924 32.9687 474.634 28.3789 468.494 26.6689C468.314 26.6189 468.134 26.569 467.954 26.539Z" fill="#FFEB00"/>
</svg>
