<svg width="1000" height="414" viewBox="0 0 1000 414" fill="none" xmlns="http://www.w3.org/2000/svg">
<path d="M299.13 120.3C302.76 120.3 306.39 120.3 310.02 120.3C310.49 120.3 310.95 120.33 311.42 120.3C312.7 120.2 313.56 120.62 313.87 121.97C314.1 122.97 314.61 123.86 315.18 124.72C317.44 128.15 320.79 129.8 324.69 130.47C327.91 131.02 331.17 131.14 334.42 130.56C335.72 130.33 336.95 129.93 338.06 129.23C340.84 127.48 341.27 123.25 338.25 121.25C337 120.42 335.68 119.76 334.22 119.39C329.8 118.29 325.39 117.17 320.96 116.08C315.72 114.79 310.48 113.55 305.52 111.34C302.36 109.93 299.45 108.15 296.78 105.92C292.9 102.68 290.59 98.52 289.55 93.66C288.35 88.1 288.6 82.56 290.25 77.12C292.69 69.06 298.17 63.58 305.46 59.79C311.07 56.87 317.13 55.55 323.42 55.15C330.25 54.72 336.99 55.19 343.61 56.99C347.67 58.09 351.61 59.56 355.24 61.63C363.03 66.05 367.78 72.81 369.81 81.49C370.17 83.02 370.35 84.6 370.56 86.16C370.65 86.82 370.3 87.17 369.59 87.22C368.94 87.27 368.29 87.26 367.64 87.26C360.1 87.26 352.56 87.26 345.02 87.26C344.55 87.26 344.09 87.25 343.62 87.25C342.69 87.25 341.97 86.99 341.81 85.93C341.8 85.84 341.75 85.75 341.72 85.67C339.97 80.53 336.23 78.17 330.93 78C328.87 77.93 326.84 78.04 324.87 78.72C323.71 79.12 322.65 79.69 321.79 80.57C319.37 83.01 319.74 86.84 322.57 88.81C323.74 89.62 325.07 90.05 326.42 90.4C330.2 91.36 334 92.27 337.79 93.21C343.02 94.51 348.3 95.63 353.33 97.65C357.16 99.19 360.71 101.19 363.88 103.83C367.43 106.79 369.67 110.62 370.71 115.08C372.14 121.19 371.95 127.26 369.83 133.21C368.4 137.22 366.08 140.62 362.96 143.56C357.79 148.43 351.64 151.32 344.81 152.86C337.03 154.62 329.13 154.93 321.22 153.94C314.9 153.15 308.86 151.37 303.15 148.49C295.18 144.47 289.82 138.24 287.06 129.76C286.23 127.2 285.42 124.62 285.04 121.94C284.87 120.73 285.12 120.39 286.29 120.33C287.31 120.28 288.34 120.3 289.36 120.3C292.62 120.3 295.88 120.3 299.13 120.3Z" fill="#FFEB00"/>
<path d="M477.64 85.64C477.64 93.45 477.68 101.26 477.62 109.06C477.58 114.38 476.8 119.62 475.33 124.74C473.91 129.69 471.76 134.28 468.63 138.42C463.81 144.79 457.6 149.16 450.07 151.65C442.37 154.2 434.45 154.86 426.38 154.22C421.44 153.83 416.61 152.97 411.95 151.27C404.86 148.68 399.02 144.45 394.45 138.42C390.25 132.88 387.87 126.61 386.58 119.86C385.74 115.46 385.39 111.03 385.39 106.55C385.4 91.03 385.39 75.5 385.39 59.98C385.39 59.42 385.39 58.86 385.42 58.31C385.48 57.43 385.76 57.12 386.58 57.06C387.23 57.01 387.88 57.02 388.53 57.02C396.07 57.02 403.61 57.02 411.14 57.02C411.79 57.02 412.44 57.04 413.09 57.09C413.63 57.13 413.94 57.48 413.98 57.99C414.04 58.92 414.05 59.85 414.05 60.78C414.05 76.02 414.05 91.27 414.05 106.51C414.05 109.5 414.33 112.45 415.07 115.35C415.58 117.34 416.39 119.21 417.5 120.95C420.07 124.96 423.8 127.12 428.46 127.86C431.08 128.28 433.68 128.18 436.22 127.56C441.37 126.31 444.9 123.11 446.99 118.27C448.41 114.97 448.85 111.48 449.01 107.93C449.06 106.82 449.02 105.7 449.02 104.58C449.02 89.89 449.02 75.21 449.02 60.52C449.02 56.7 448.84 57.02 452.47 57.02C459.91 57.02 467.36 57.02 474.8 57.02C477.74 57.02 477.67 56.98 477.67 59.98C477.67 68.53 477.67 77.08 477.67 85.63H477.64V85.64Z" fill="#FFEB00"/>
<path d="M761.87 220.09C761.87 205.58 761.87 191.08 761.87 176.57C761.87 175.83 761.86 175.08 761.87 174.34C761.92 172.57 761.99 172.51 763.82 172.46C764.29 172.45 764.75 172.46 765.22 172.46C787.94 172.46 810.65 172.46 833.37 172.46C837.14 172.46 836.82 172.1 836.83 175.9C836.84 181.57 836.83 187.25 836.83 192.92C836.83 193.66 836.8 194.41 836.76 195.15C836.73 195.7 836.34 196 835.86 196.04C834.84 196.12 833.82 196.14 832.79 196.14C819.85 196.14 806.91 196.14 793.97 196.14C790.05 196.14 790.48 195.98 790.46 199.57C790.44 202.17 790.44 204.78 790.48 207.38C790.5 208.58 790.76 208.82 791.97 208.88C792.81 208.92 793.65 208.91 794.48 208.91C805.28 208.91 816.08 208.91 826.88 208.91C830.46 208.91 830.22 208.79 830.22 212.25C830.22 217.64 830.22 223.04 830.22 228.43C830.22 229.17 830.21 229.92 830.17 230.66C830.14 231.18 829.85 231.53 829.31 231.55C828.47 231.59 827.64 231.61 826.8 231.61C815.81 231.61 804.83 231.61 793.84 231.61C790.22 231.61 790.46 231.3 790.45 234.86C790.45 237.46 790.45 240.07 790.48 242.67C790.5 243.7 790.78 243.96 791.83 244.02C792.67 244.07 793.5 244.06 794.34 244.06C807.28 244.06 820.22 244.06 833.16 244.06C837.24 244.06 836.81 243.9 836.82 247.64C836.84 253.31 836.82 258.99 836.82 264.66C836.82 265.4 836.8 266.15 836.75 266.89C836.71 267.42 836.36 267.72 835.84 267.75C835.19 267.8 834.54 267.8 833.89 267.8C810.89 267.8 787.9 267.8 764.9 267.8C764.62 267.8 764.34 267.8 764.06 267.8C761.96 267.75 761.88 267.71 761.87 265.57C761.85 258.32 761.87 251.06 761.87 243.81C761.87 235.91 761.87 228 761.87 220.1V220.09Z" fill="#FFEB00"/>
<path d="M163.02 225.64C163.02 213 163.02 200.36 163.02 187.71C163.02 187.15 163.07 186.59 163.02 186.04C162.85 184.6 163.4 183.64 164.6 182.76C169.18 179.41 173.67 175.94 178.21 172.53C182.45 169.35 186.71 166.2 190.95 163.01C199.2 156.8 207.44 150.58 215.68 144.37C224.59 137.65 233.5 130.94 242.41 124.22C244.45 122.68 244.21 122.78 246.17 124.27C251.51 128.31 256.87 132.32 262.22 136.35C274.4 145.53 286.57 154.72 298.75 163.91C302.09 166.43 305.45 168.92 308.76 171.48C309.62 172.15 310.49 172.45 311.57 172.44C315.01 172.4 318.46 172.42 321.9 172.44C322.64 172.44 323.39 172.45 324.13 172.5C324.64 172.53 325 172.81 325.05 173.35C325.1 173.9 325.12 174.46 325.12 175.02C325.12 181.16 325.12 187.29 325.12 193.43C325.12 193.89 325.12 194.36 325.09 194.82C325.03 195.67 324.73 195.99 323.91 196.07C323.45 196.12 322.98 196.13 322.52 196.13C318.8 196.13 315.07 196.1 311.35 196.15C309.89 196.17 308.69 195.77 307.5 194.87C301.34 190.22 295.11 185.66 288.91 181.06C278.68 173.47 268.45 165.88 258.21 158.29C253.88 155.08 249.53 151.89 245.18 148.7C243.97 147.82 243.94 147.81 242.77 148.7C238.48 151.97 234.2 155.26 229.92 158.53C216.76 168.57 203.6 178.62 190.44 188.66C188.74 189.96 187.05 191.27 185.3 192.51C184.23 193.27 183.63 194.17 183.77 195.54C183.86 196.37 183.78 197.21 183.78 198.05C183.78 219.9 183.79 241.74 183.78 263.59C183.78 268.4 184.32 267.78 179.7 267.81C175.33 267.84 170.95 267.81 166.58 267.81C166.3 267.81 166.02 267.81 165.74 267.81C163.96 267.79 163.06 266.847 163.04 264.98C163.04 264.05 163.04 263.12 163.04 262.19C163.04 250.01 163.04 237.83 163.04 225.66L163.02 225.64Z" fill="#FFEB00"/>
<path d="M790.71 94.08C791.55 93.54 791.8 92.71 792.19 91.99C797.27 82.69 802.33 73.39 807.41 64.09C808.48 62.13 809.62 60.22 810.69 58.26C811.13 57.45 811.71 56.98 812.68 57.04C813.24 57.08 813.8 57.04 814.35 57.04C822.82 57.04 831.29 57.04 839.75 57.04C840.4 57.04 841.05 57.05 841.7 57.12C842.18 57.17 842.29 57.58 842.14 57.94C841.77 58.79 841.34 59.62 840.9 60.43C835.93 69.57 830.93 78.7 825.97 87.85C820.44 98.06 814.95 108.3 809.43 118.52C808.33 120.56 807.21 122.6 806.03 124.6C805.3 125.84 805.01 127.12 805.03 128.57C805.11 135.45 805.12 142.33 805.14 149.2C805.14 152.62 805.34 152.35 801.96 152.35C794.61 152.35 787.26 152.35 779.91 152.35C779.17 152.35 778.42 152.35 777.68 152.3C777.13 152.27 776.86 151.91 776.82 151.39C776.77 150.74 776.74 150.09 776.74 149.44C776.69 142.56 776.62 135.69 776.63 128.81C776.63 127.18 776.32 125.75 775.53 124.3C770.62 115.33 765.8 106.32 760.94 97.33C758.11 92.1 755.28 86.87 752.43 81.65C748.38 74.23 744.31 66.82 740.26 59.4C739.99 58.91 739.75 58.41 739.56 57.89C739.41 57.48 739.61 57.14 740.04 57.09C740.59 57.02 741.15 57.03 741.71 57.03C750.46 57.03 759.2 57.03 767.95 57.03C768.42 57.03 768.88 57.06 769.35 57.05C770.2 57.03 770.73 57.45 771.09 58.19C771.41 58.86 771.79 59.5 772.14 60.16C777.46 70.06 782.78 79.97 788.12 89.87C788.9 91.32 789.64 92.82 790.73 94.09L790.71 94.08Z" fill="#FFEB00"/>
<path d="M378.46 172.45C391.67 172.45 404.89 172.45 418.1 172.45C421.53 172.45 421.45 172.11 421.45 175.76C421.45 181.71 421.45 187.66 421.45 193.61C421.45 197.3 421.62 196.98 418.18 196.99C410.64 197 403.11 196.99 395.57 196.99C392.61 196.99 392.73 196.85 392.73 199.92C392.73 221.3 392.73 242.68 392.73 264.05C392.73 268.18 393.13 267.77 388.99 267.78C381.55 267.8 374.1 267.79 366.66 267.78C364.09 267.78 364.06 267.75 364.06 265.11C364.06 243.73 364.06 222.35 364.06 200.98C364.06 199.96 364.03 198.94 363.98 197.92C363.95 197.4 363.64 197.06 363.1 197.03C362.36 196.99 361.61 196.99 360.87 196.99C353.52 196.99 346.17 196.99 338.82 196.99C338.08 196.99 337.33 197 336.59 196.97C335.55 196.92 335.36 196.71 335.3 195.59C335.27 195.03 335.28 194.48 335.28 193.92C335.28 187.79 335.28 181.65 335.28 175.52C335.28 174.87 335.28 174.22 335.32 173.57C335.35 172.93 335.68 172.52 336.35 172.5C337.19 172.47 338.02 172.46 338.86 172.46C352.07 172.46 365.29 172.46 378.5 172.46L378.46 172.45Z" fill="#FFEB00"/>
<path d="M242.2 267.79C232.05 267.79 221.91 267.79 211.76 267.79C209.17 267.79 209.15 267.76 209.13 265.15C209.11 262.73 209.17 260.31 209.11 257.9C209.08 256.62 209.45 255.58 210.3 254.61C212.74 251.8 215.1 248.92 217.51 246.09C223.61 238.95 229.72 231.81 235.82 224.67C238.05 222.05 240.25 219.41 242.52 216.82C243.94 215.2 245.08 213.4 246.14 211.54C246.89 210.23 247.3 208.79 247.19 207.27C246.99 204.35 244.89 201.97 241.96 201.55C237.07 200.85 233.82 202.97 232.59 207.05C232.48 207.41 232.41 207.77 232.31 208.13C232.17 208.63 231.83 208.92 231.32 208.97C230.77 209.02 230.21 209.04 229.65 209.04C223.23 209.04 216.81 209.04 210.38 209.04C209.91 209.04 209.45 209.04 208.98 209C208.09 208.93 207.83 208.65 207.8 207.79C207.74 206.11 207.97 204.45 208.33 202.81C208.93 200.08 209.67 197.4 210.84 194.85C214.16 187.6 219.73 182.82 227.21 180.24C232.11 178.55 237.2 178.07 242.34 178.24C247.2 178.4 251.95 179.17 256.52 180.94C260.85 182.62 264.62 185.15 267.85 188.41C273.28 193.9 275.47 200.63 274.78 208.27C274.5 211.37 273.31 214.21 271.79 216.9C270.36 219.41 268.7 221.76 266.94 224.05C261.72 230.84 256.09 237.28 250.58 243.82C250.04 244.46 249.53 245.12 249.04 245.79C248.81 246.1 249.06 246.55 249.47 246.57C250.21 246.6 250.96 246.62 251.7 246.62C258.59 246.62 265.47 246.62 272.36 246.62C273.1 246.62 273.85 246.64 274.59 246.69C275.13 246.72 275.42 247.08 275.47 247.59C275.53 248.14 275.54 248.7 275.54 249.26C275.54 254.56 275.54 259.86 275.54 265.16C275.54 265.72 275.54 266.28 275.47 266.83C275.41 267.33 275.12 267.69 274.57 267.72C273.73 267.76 272.9 267.79 272.06 267.79C262.1 267.79 252.14 267.79 242.18 267.79H242.2Z" fill="#FFEB00"/>
<path d="M679.28 104.34C679.28 89.65 679.28 74.96 679.28 60.26C679.28 56.88 679.06 57.02 682.42 57.02C689.96 57.02 697.5 57.02 705.04 57.02C707.52 57.02 707.57 57.08 707.59 59.49C707.61 64.33 707.59 69.16 707.59 74C707.59 90.83 707.59 107.66 707.59 124.49C707.59 128.19 707.38 127.93 711.11 127.93C723.96 127.93 736.8 127.93 749.65 127.93C753.44 127.93 753.09 127.72 753.1 131.42C753.11 137.28 753.1 143.14 753.1 148.99C753.1 149.73 753.09 150.48 753.06 151.22C753.04 151.86 752.72 152.27 752.05 152.29C751.12 152.32 750.19 152.32 749.26 152.32C729.52 152.32 709.79 152.32 690.05 152.32C687.44 152.32 684.84 152.32 682.23 152.32C679.07 152.32 679.28 152.53 679.27 149.23C679.27 148.67 679.27 148.11 679.27 147.56C679.27 133.15 679.27 118.73 679.27 104.32L679.28 104.34Z" fill="#FFEB00"/>
<path d="M160.01 294.75C161.26 294.27 162.57 294.52 163.84 294.52C165.22 294.52 166.83 293.99 167.92 294.85C168.9 295.62 168.88 297.2 169.33 298.42C172.35 306.71 174.8 315.2 177.61 323.56C177.85 324.26 178.06 324.98 178.33 325.67C178.38 325.8 178.59 325.95 178.73 325.95C178.88 325.95 179.1 325.84 179.17 325.71C179.4 325.31 179.61 324.89 179.76 324.45C180.56 322.17 181.34 319.89 182.12 317.6C184.28 311.27 186.36 304.91 188.63 298.62C190.47 293.53 189.39 294.63 194.35 294.49C194.72 294.48 195.1 294.51 195.47 294.49C196.46 294.43 196.95 294.93 197.27 295.85C198.93 300.68 200.65 305.49 202.32 310.31C203.96 315.05 205.57 319.8 207.2 324.54C207.38 325.06 207.49 325.62 208.02 326.09C208.85 325.55 208.96 324.63 209.22 323.83C210.64 319.51 212.03 315.17 213.43 310.84C214.86 306.42 216.29 302 217.73 297.59C217.93 296.97 218.18 296.37 218.36 295.75C218.65 294.8 219.3 294.46 220.26 294.48C222.12 294.51 223.98 294.48 225.84 294.52C226.71 294.54 226.96 294.91 226.68 295.8C225.98 298.01 225.25 300.22 224.52 302.42C222.94 307.18 221.36 311.94 219.76 316.7C217.46 323.57 215.14 330.43 212.83 337.29C212.68 337.73 212.5 338.16 212.35 338.6C212.17 339.12 211.77 339.3 211.28 339.31C209.33 339.33 207.37 339.31 205.42 339.34C204.57 339.34 204.09 339.01 203.8 338.15C202.59 334.54 201.31 330.95 200.05 327.36C198.13 321.93 196.2 316.51 194.27 311.09C194.09 310.58 193.86 310.1 193.65 309.6C192.7 309.98 192.73 310.84 192.5 311.5C189.56 319.82 186.64 328.15 183.72 336.47C183.54 337 183.34 337.52 183.18 338.05C182.91 338.99 182.32 339.38 181.33 339.35C179.56 339.3 177.79 339.32 176.03 339.34C175.17 339.34 174.65 338.98 174.39 338.16C173.65 335.86 172.88 333.57 172.11 331.28C168.37 320.09 164.62 308.91 160.9 297.72C160.59 296.77 159.9 295.92 160.02 294.75H160.01Z" fill="#897C73"/>
<path d="M450.51 326.27C451.05 325.61 451.2 324.79 451.46 324.01C454.05 315.97 456.65 307.92 459.26 299.88C459.75 298.38 460.33 296.91 460.85 295.42C461.02 294.94 461.29 294.58 461.81 294.57C464.21 294.5 466.62 294.37 468.99 294.67C469.22 295.66 468.77 296.42 468.52 297.19C465.95 305.05 463.37 312.9 460.75 320.74C458.84 326.46 456.87 332.17 454.91 337.88C454.42 339.3 454.39 339.32 452.96 339.34C451.29 339.37 449.61 339.29 447.94 339.37C446.78 339.43 446.31 338.83 445.97 337.86C444.65 333.99 443.31 330.13 441.95 326.28C440.19 321.29 438.41 316.3 436.64 311.32C436.52 310.97 436.39 310.62 436.24 310.28C436.13 310.03 435.98 309.76 435.64 309.85C435.49 309.89 435.33 310.05 435.27 310.19C435.03 310.79 434.82 311.41 434.6 312.02C431.71 320.26 428.82 328.49 425.93 336.73C425.78 337.17 425.61 337.6 425.48 338.05C425.21 338.96 424.68 339.41 423.66 339.37C421.99 339.31 420.31 339.37 418.64 339.35C417.15 339.33 417.13 339.31 416.66 337.94C416.02 336.1 415.42 334.24 414.8 332.39C410.91 320.77 407.02 309.14 403.13 297.52C402.84 296.65 402.42 295.81 402.43 294.72C403.97 294.29 405.54 294.52 407.09 294.52C411.01 294.52 410.17 294.16 411.34 297.42C414.48 306.16 417.08 315.08 420.05 323.88C420.31 324.65 420.6 325.41 420.87 326.17C421.92 325.89 421.9 325 422.12 324.35C424.1 318.65 426.01 312.92 427.97 307.21C429.27 303.44 430.64 299.69 431.93 295.91C432.28 294.87 432.87 294.42 433.97 294.47C435.18 294.53 436.39 294.54 437.6 294.47C438.73 294.41 439.27 294.93 439.62 295.94C441.49 301.39 443.41 306.81 445.29 312.26C446.72 316.38 448.12 320.52 449.54 324.64C449.74 325.23 449.76 325.96 450.52 326.25L450.51 326.27Z" fill="#897C73"/>
<path d="M284.71 324.43C285.1 323.35 284.94 322.42 284.94 321.51C284.96 313.33 284.94 305.14 284.95 296.96C284.95 294.53 284.98 294.45 287.43 294.52C289.16 294.57 290.94 294.05 292.62 294.88C293.1 296.52 292.84 298.19 292.85 299.85C292.87 311.85 292.86 323.84 292.86 335.84C292.86 339.52 293.06 339.15 289.57 339.16C286.61 339.16 286.62 339.16 284.64 336.83C279.03 330.25 273.42 323.66 267.8 317.09C265.99 314.97 264.14 312.88 262.31 310.77C262.13 310.56 261.95 310.34 261.73 310.17C261.61 310.08 261.41 310.04 261.24 310.05C261.02 310.05 260.93 310.22 260.93 310.44C260.92 311.28 260.88 312.11 260.88 312.95C260.88 320.85 260.88 328.76 260.88 336.66C260.88 339.13 260.85 339.14 258.45 339.16C256.96 339.17 255.47 339.16 253.98 339.13C253.31 339.12 252.98 338.7 252.94 338.07C252.9 337.42 252.9 336.77 252.9 336.12C252.9 323.29 252.9 310.46 252.9 297.62C252.9 294.22 252.68 294.51 256.1 294.49C256.19 294.49 256.29 294.5 256.38 294.49C258.21 294.23 259.44 294.97 260.64 296.41C268.07 305.35 275.61 314.2 283.12 323.08C283.53 323.56 283.83 324.17 284.72 324.43H284.71Z" fill="#897C73"/>
<path d="M508.66 307.4C506.37 307.84 504.05 307.58 501.75 307.58C501.24 307.58 500.92 307.22 500.76 306.74C500.64 306.39 500.57 306.02 500.44 305.67C499.55 303.22 497.75 301.66 495.34 300.88C492.53 299.97 489.66 299.96 486.82 300.81C485.55 301.19 484.42 301.82 483.51 302.79C481 305.45 481.65 309.57 484.87 311.28C486.11 311.94 487.44 312.33 488.82 312.61C492 313.27 495.18 313.96 498.35 314.68C500.36 315.14 502.24 315.97 503.94 317.13C507.7 319.7 509.06 323.37 508.49 327.77C507.78 333.33 504.4 336.75 499.35 338.72C496.99 339.64 494.5 339.95 491.97 340.01C487.63 340.12 483.43 339.56 479.58 337.38C474.76 334.65 472.24 330.48 471.75 325.11C472.23 324.63 472.7 324.61 473.17 324.6C474.47 324.59 475.78 324.69 477.07 324.56C478.8 324.4 479.72 324.92 480.25 326.73C481 329.27 482.97 330.92 485.37 331.93C488.74 333.34 492.23 333.49 495.75 332.53C496.94 332.21 497.96 331.57 498.89 330.78C500.78 329.19 501.37 325.23 498.4 323.31C496.8 322.28 495.04 321.77 493.2 321.42C490.46 320.89 487.73 320.34 485 319.79C483.07 319.4 481.25 318.69 479.53 317.77C475.99 315.88 473.97 312.96 473.59 308.93C472.95 302.08 476.26 296.92 483.04 294.64C488.92 292.67 494.77 293.11 500.44 295.6C504.35 297.31 506.85 300.27 508.06 304.33C508.35 305.29 508.85 306.22 508.64 307.4H508.66Z" fill="#897C73"/>
<path d="M821.73 340.1C818.83 339.98 815.96 339.71 813.24 338.64C807.87 336.52 804.22 332.85 802.99 327.07C802.88 326.53 802.83 325.97 802.81 325.42C802.79 324.99 803.09 324.71 803.49 324.71C805.63 324.68 807.77 324.68 809.9 324.7C810.31 324.7 810.55 325 810.68 325.38C810.8 325.73 810.94 326.08 811.06 326.43C812.09 329.37 814.19 331.22 817.06 332.23C820.21 333.33 823.42 333.49 826.66 332.6C827.56 332.35 828.41 331.98 829.2 331.47C831.98 329.65 832.6 324.71 828.56 322.78C827.21 322.14 825.77 321.76 824.3 321.48C821.47 320.93 818.64 320.4 815.82 319.8C813.53 319.31 811.41 318.39 809.43 317.12C806.47 315.22 804.89 312.47 804.55 309.06C804.05 303.96 805.67 299.74 810.02 296.73C812.29 295.16 814.78 294.21 817.49 293.83C822.89 293.07 828.09 293.64 832.88 296.4C836.45 298.45 838.65 301.58 839.55 305.6C839.63 305.96 839.66 306.34 839.67 306.71C839.69 307.25 839.44 307.61 838.87 307.62C836.92 307.65 834.96 307.65 833.01 307.67C832.24 307.67 831.85 307.28 831.68 306.54C831.56 306 831.34 305.48 831.1 304.97C830.35 303.42 829.27 302.16 827.66 301.46C824.17 299.93 820.61 299.86 817.06 301.15C814.91 301.93 813.47 303.44 813.03 305.76C812.62 307.9 813.47 309.84 815.33 311.03C816.52 311.79 817.85 312.21 819.22 312.51C821.95 313.1 824.68 313.63 827.41 314.2C829.61 314.66 831.71 315.38 833.69 316.45C840.27 320.02 841.79 328.32 836.99 334.07C834.15 337.47 830.48 339.23 826.18 339.82C824.71 340.02 823.21 340.04 821.73 340.14V340.1Z" fill="#897C73"/>
<path d="M234.58 316.96C234.58 310.65 234.58 304.33 234.58 298.02C234.58 297.37 234.57 296.72 234.59 296.07C234.64 294.75 234.78 294.53 235.99 294.54C238.02 294.54 240.07 294.31 242.09 294.7C243.02 296.64 242.49 298.7 242.5 300.69C242.56 312.48 242.53 324.28 242.53 336.07C242.53 339.45 242.72 339.17 239.31 339.18C238.01 339.18 236.71 339.15 235.41 339.11C235 339.1 234.71 338.82 234.68 338.41C234.61 337.58 234.58 336.74 234.58 335.91C234.58 329.6 234.58 323.28 234.58 316.97V316.96Z" fill="#897C73"/>
<path d="M436.22 172.46C450.55 172.46 464.881 172.4 479.21 172.5C485.84 172.55 492.36 173.56 498.61 175.96C503.01 177.65 506.97 180.06 510.37 183.29C515.56 188.21 518.43 194.38 519.43 201.39C520.08 206.01 520.06 210.68 518.98 215.25C517.29 222.43 513.81 228.55 507.86 233.1C506.47 234.16 505.07 235.21 503.541 236.37H503.55C505.09 238.52 506.531 240.57 508 242.59C508.98 243.94 510.03 245.25 511.01 246.6C515.51 252.76 519.99 258.92 524.47 265.08C524.91 265.68 525.32 266.3 525.71 266.93C525.92 267.26 525.68 267.71 525.28 267.74C524.63 267.78 523.979 267.8 523.33 267.8H494.58C494.3 267.8 494.02 267.77 493.74 267.8C492.51 267.919 491.67 267.46 490.97 266.39C488.92 263.29 486.75 260.27 484.64 257.21C481.69 252.92 478.72 248.65 475.82 244.33C475.08 243.23 474.29 242.64 472.89 242.69C469.92 242.78 466.94 242.7 463.96 242.74C462.58 242.76 462.42 242.95 462.36 244.4C462.32 245.33 462.34 246.26 462.34 247.19C462.34 253.23 462.35 259.27 462.34 265.31C462.34 267.77 462.29 267.8 459.85 267.8C452.03 267.81 444.22 267.8 436.4 267.8C435.93 267.8 435.47 267.8 435 267.77C434.1 267.71 433.8 267.46 433.73 266.63C433.67 265.89 433.68 265.14 433.68 264.4V176.01C433.68 175.08 433.73 174.16 433.81 173.23C433.84 172.84 434.14 172.57 434.55 172.53C435.1 172.48 435.66 172.46 436.22 172.46ZM464.53 196.42C464.16 196.42 463.79 196.44 463.42 196.46C462.74 196.5 462.45 196.92 462.41 197.54C462.37 198.19 462.35 198.84 462.35 199.49V214.79C462.35 215.43 462.37 216.08 462.43 216.73C462.48 217.24 462.79 217.56 463.32 217.61C463.59 217.64 463.87 217.67 464.15 217.67C469.07 217.66 474 217.74 478.92 217.6C482.79 217.49 486.13 216.03 488.72 213.03C491.9 209.34 491.73 203.84 488.29 200.42C486.96 199.09 485.41 198.09 483.63 197.46C481.78 196.8 479.88 196.42 477.91 196.42H464.53Z" fill="#FFEB00"/>
<path d="M697.92 172.45C704.94 172.47 711.82 173.41 718.51 175.65C727.68 178.72 735.27 184.04 741.27 191.59C745.03 196.33 747.44 201.75 748.76 207.63C750.99 217.56 750.69 227.39 747.42 237.06C744.36 246.11 738.55 253.08 730.75 258.47C722.98 263.849 714.27 266.49 704.94 267.38C701.41 267.72 697.88 267.79 694.34 267.79H659.99C656.84 267.79 656.92 267.98 656.92 264.76V219.85H656.93V175.77C656.93 172.1 656.68 172.45 660.22 172.45C672.789 172.45 685.36 172.41 697.92 172.45ZM701.13 197.63C696.41 197.13 691.64 197.43 686.9 197.46C685.72 197.47 685.54 197.73 685.48 199.02C685.44 199.76 685.46 200.51 685.46 201.25V219.93H685.48V239.17C685.48 239.91 685.46 240.66 685.5 241.4C685.55 242.48 685.76 242.74 686.82 242.74C691.38 242.74 695.96 243.01 700.49 242.62C708.78 241.91 715.03 237.77 718.77 230.25C720.84 226.07 721.29 221.59 720.84 216.94C719.9 207.18 711.79 198.76 701.13 197.63Z" fill="#FFEB00"/>
<path d="M580.11 171.86C588.02 171.95 595.93 171.9 603.85 171.9C604.22 171.9 604.59 171.92 604.97 171.91C605.58 171.91 606.03 172.14 606.27 172.74C606.55 173.43 606.88 174.1 607.16 174.79C608.76 178.66 610.33 182.53 611.94 186.39C615.87 195.83 619.82 205.26 623.76 214.69C626.88 222.15 630 229.61 633.12 237.07C636.42 244.96 639.72 252.84 643.04 260.73C643.76 262.44 644.53 264.14 645.28 265.84C646.12 267.74 645.6 267.81 644.09 267.81H618.95C618.21 267.81 617.46 267.78 616.72 267.79C616.09 267.79 615.65 267.53 615.4 266.96C615.02 266.11 614.62 265.27 614.29 264.4C613.26 261.71 612.28 259 611.26 256.31C610.44 254.16 610.43 254.16 608.04 254.12H576.2C573.09 254.12 573.38 253.92 572.29 256.92C571.14 260.06 569.98 263.2 568.88 266.36C568.52 267.39 567.93 267.89 566.83 267.8C566.37 267.76 565.9 267.8 565.43 267.8H538.32L538.31 267.79C538.11 266.66 538.49 266.09 538.74 265.51C544.59 251.44 550.45 237.36 556.32 223.3C559.15 216.52 561.99 209.76 564.83 202.99C568.42 194.42 571.99 185.84 575.59 177.27C576.06 176.16 576.69 175.11 577.07 173.97C577.57 172.44 578.41 171.84 580.11 171.86ZM591.94 205.11C591.88 205.08 591.8 205.13 591.72 205.13C590.73 206.871 584.77 222.52 582.54 229.26C582.37 229.78 582.07 230.29 582.37 230.95C582.67 231.01 583.03 231.15 583.38 231.15C589.139 231.16 594.9 231.15 600.66 231.13C600.92 231.13 601.18 230.97 601.42 230.89H601.41C601.45 230.67 601.54 230.47 601.5 230.31C601.37 229.77 601.21 229.24 601.01 228.72C598.06 220.91 595.1 213.1 592.14 205.3C592.1 205.22 592.02 205.15 591.94 205.11Z" fill="#FFEB00"/>
<path d="M493.59 57.0296C506.15 57.0296 518.72 56.9901 531.28 57.0501C537.54 57.0802 543.72 57.7904 549.7 59.7503C555.34 61.6003 560.39 64.4504 564.62 68.7103C568.81 72.9302 571.48 77.9298 572.74 83.6996C574.36 91.0996 574.22 98.4703 572.06 105.75C569.54 114.23 564.07 120.3 556.41 124.52C550.1 128 543.25 129.53 536.13 130.07C531.21 130.45 526.27 130.35 521.34 130.38C518.9 130.39 518.87 130.42 518.86 132.88C518.84 137.71 518.86 142.55 518.85 147.38C518.85 148.31 518.86 149.24 518.85 150.17C518.81 152.3 518.8 152.34 516.64 152.34C508.64 152.35 500.63 152.34 492.63 152.34C492.35 152.34 492.07 152.34 491.79 152.32C490.76 152.25 490.57 152.06 490.52 150.92C490.48 150.08 490.5 149.25 490.5 148.41V104.63L490.49 104.64V60.8597C490.49 60.0198 490.47 59.1898 490.52 58.3499C490.57 57.34 490.83 57.1201 491.92 57.0501C492.48 57.0201 493.04 57.0296 493.59 57.0296ZM521.62 80.9896C521.07 80.9896 520.51 80.9996 519.95 81.0296C519.29 81.0596 518.95 81.4602 518.9 82.0902C518.85 82.7401 518.85 83.3904 518.85 84.0404V93.5199H518.86C518.86 97.1498 518.83 100.77 518.86 104.4C518.87 106.29 519.01 106.41 520.98 106.43C524.139 106.45 527.31 106.48 530.47 106.41C531.95 106.38 533.45 106.23 534.9 105.94C539.16 105.08 542.5 102.93 544.13 98.7201C545.06 96.3401 545.33 93.8597 544.94 91.3197C544.2 86.5199 541.47 83.4401 536.87 81.9701C534.82 81.3201 532.72 80.9896 530.56 80.9896H521.62Z" fill="#FFEB00"/>
<path d="M588.32 57.0296C600.7 57.0296 613.08 56.9903 625.47 57.0403C631.73 57.0703 637.91 57.76 643.91 59.68C652.18 62.33 658.91 67.01 663.56 74.4398C665.35 77.2996 666.51 80.4397 667.22 83.7396C668.79 91.0494 668.68 98.3297 666.59 105.53C664.39 113.089 659.74 118.84 653.2 123.11C647.72 126.69 641.64 128.57 635.22 129.54C629.49 130.4 623.72 130.38 617.95 130.37C616.74 130.37 615.53 130.39 614.32 130.43C613.68 130.45 613.27 130.8 613.22 131.46C613.17 132.29 613.15 133.13 613.15 133.97C613.15 139.27 613.16 144.57 613.14 149.87C613.14 152.32 613.1 152.34 610.67 152.34C602.85 152.35 595.03 152.34 587.21 152.34C586.75 152.34 586.28 152.33 585.82 152.29C585.29 152.25 584.95 151.96 584.92 151.43C584.87 150.6 584.86 149.76 584.86 148.92V104.56L584.83 104.57V60.4896C584.83 56.7702 584.55 57.0296 588.32 57.0296ZM629.96 81.5403C624.7 80.5403 619.39 81.0801 614.1 81.0501C613.56 81.0402 613.27 81.4698 613.21 81.9495C613.13 82.5994 613.12 83.2498 613.12 83.8997V93.6605L613.112 98.6605C613.11 100.333 613.11 102.005 613.12 103.68C613.14 106.35 613.19 106.4 615.71 106.42C618.78 106.44 621.85 106.47 624.92 106.4C626.4 106.37 627.9 106.23 629.35 105.92C632.32 105.28 634.99 104.05 636.95 101.59C638.64 99.4702 639.34 96.9899 639.51 94.3499C639.93 87.9701 636.64 83.3803 630.5 81.6702C630.32 81.6202 630.14 81.5703 629.96 81.5403Z" fill="#FFEB00"/>
<path d="M603.68 294.52C608.8 294.52 613.92 294.54 619.04 294.54C621.76 294.54 624.42 294.92 627 295.76C630.69 296.96 633.91 298.95 636.64 301.71C640.34 305.45 642.17 310.02 642.44 315.23C642.59 318.03 642.37 320.81 641.51 323.5C639.03 331.25 633.55 335.83 625.97 338.17C623.74 338.86 621.41 339.14 619.08 339.16C613.87 339.21 608.65 339.18 603.44 339.17C602.98 339.17 602.51 339.14 602.05 339.08C601.63 339.03 601.38 338.73 601.35 338.33C601.29 337.59 601.26 336.85 601.26 336.11V316.86H601.271V297.06C601.271 294.55 601.3 294.52 603.68 294.52ZM623.09 302.42C618.89 301.3 614.6 301.9 610.34 301.83C609.82 301.82 609.47 302.12 609.42 302.66C609.38 303.22 609.35 303.77 609.35 304.33V316.86H609.34V319.64C609.34 323.17 609.33 326.69 609.36 330.22C609.38 331.64 609.59 331.85 610.96 331.87C613.65 331.91 616.35 331.92 619.04 331.87C620.9 331.83 622.72 331.43 624.48 330.8C630.33 328.72 634.64 322.38 634.36 316.32C634.05 309.57 629.7 304.17 623.09 302.42Z" fill="#897C73"/>
<path d="M305.18 294.51C310.67 294.52 316.16 294.51 321.65 294.56C326.33 294.6 330.61 295.981 334.55 298.48C343.07 303.86 345.72 313.9 343.88 321.5C342.75 326.17 340.59 330.17 336.94 333.3C333.48 336.27 329.47 338.11 324.93 338.78C322.8 339.09 320.68 339.2 318.53 339.18C314.53 339.16 310.53 339.18 306.53 339.18C305.79 339.18 305.04 339.17 304.3 339.15C303.65 339.13 303.25 338.79 303.21 338.14C303.16 337.4 303.16 336.65 303.16 335.91V297.99C303.16 297.15 303.18 296.32 303.22 295.48C303.25 294.97 303.52 294.62 304.07 294.57C304.44 294.54 304.81 294.51 305.18 294.51ZM312.55 301.79C311.42 301.86 311.23 302.03 311.17 303.07C311.14 303.72 311.15 304.371 311.15 305.021V325.1C311.15 326.959 311.15 328.82 311.19 330.68C311.21 331.55 311.51 331.85 312.4 331.85C315.47 331.87 318.55 331.99 321.61 331.8C327.46 331.43 331.85 328.51 334.59 323.4C336.94 319.03 337.03 314.38 334.62 310.03C331.75 304.86 327.2 302.06 321.21 301.85C318.42 301.75 315.62 301.81 312.83 301.79H312.55Z" fill="#897C73"/>
<path d="M762.12 294.5C768.26 294.52 774.4 294.52 780.54 294.56C783.58 294.58 786.43 295.4 789.07 296.87C794.07 299.65 796.6 304 796.49 309.67C796.38 315.31 793.83 319.62 788.69 322.24C787.97 322.61 787.12 322.77 786.5 323.53V323.54C787.05 324.71 788.01 325.61 788.82 326.6C791.9 330.33 794.98 334.05 798.06 337.78C798.23 337.99 798.39 338.23 798.5 338.48C798.62 338.77 798.48 339.03 798.17 339.08C797.81 339.14 797.43 339.15 797.06 339.16C795.2 339.16 793.33 339.08 791.48 339.19C790.01 339.28 789.04 338.67 788.16 337.59C784.97 333.71 781.7 329.91 778.55 326C777.58 324.79 776.54 324.24 774.98 324.34C773.22 324.46 771.45 324.34 769.68 324.39C768.47 324.42 768.25 324.65 768.24 325.93C768.21 329.09 768.24 332.25 768.22 335.41C768.19 339.61 768.68 339.13 764.521 339.16C763.411 339.16 762.29 339.13 761.18 339.07C760.77 339.05 760.49 338.77 760.45 338.36C760.39 337.71 760.36 337.06 760.36 336.42V297.11C760.36 296.55 760.38 296 760.41 295.44C760.44 294.9 760.78 294.62 761.29 294.55C761.56 294.51 761.85 294.5 762.12 294.5ZM769.6 301.8C768.52 301.8 768.26 302.07 768.24 303.1C768.22 305.23 768.24 307.36 768.24 309.49L768.229 309.48C768.229 311.61 768.21 313.74 768.24 315.87C768.25 316.72 768.57 317.05 769.43 317.05C773.14 317.05 776.84 317.06 780.55 316.97C782.54 316.92 784.35 316.17 785.92 314.94C789.54 312.1 789.49 306.66 785.83 303.89C784.24 302.69 782.43 301.94 780.44 301.89C776.83 301.8 773.21 301.8 769.6 301.8Z" fill="#897C73"/>
<path d="M374.82 293.5C387.72 293.47 398.48 304.31 398.54 316.72C398.59 329.24 387.93 340.27 375.05 340.05C361.18 340.39 351.29 328.58 351.17 317.09C351.05 305.02 361.36 293.54 374.82 293.5ZM374.96 300.89C366.94 300.77 359.37 307.33 359.35 316.78C359.33 326.72 367.42 333.01 374.86 332.67L374.85 332.68C383.31 332.91 390.4 326.07 390.43 316.89C390.459 308.49 384.34 301.03 374.96 300.89Z" fill="#897C73"/>
<path d="M728.1 293.5C742.34 293.66 751.68 306 751.61 316.98C751.54 327.7 742.33 340.31 727.79 340.04C714.92 340.27 704.25 329.57 704.26 316.81C704.26 303.83 715.31 293.36 728.1 293.5ZM738.59 305.19C732.61 299.32 722.44 299.51 716.82 305.61C713.1 309.65 711.83 314.39 712.72 319.76C713.99 327.43 720.1 332.66 727.84 332.66C734.29 332.67 740.01 328.95 742.29 323.16C744.39 317.82 744.11 310.61 738.59 305.19Z" fill="#897C73"/>
<path d="M673.39 293.49C686.13 293.66 696.85 304.6 696.74 317.05C696.63 329.21 686.02 340.399 672.94 340.04C660.43 340.29 649.4 329.98 649.36 316.88C649.32 303.551 660.74 293.31 673.39 293.49ZM673.04 300.87C664.66 300.88 657.52 307.66 657.54 316.85C657.56 326.54 665.28 332.959 673.099 332.67V332.66C680.299 332.94 688.6 327.27 688.59 316.79C688.58 306.88 680.92 300.87 673.04 300.87Z" fill="#897C73"/>
<path d="M550.01 293.52C551.12 293.42 552.25 293.43 553.35 293.53C560.049 294.13 565.01 299.35 565.29 306.12L565.25 306.16C563.06 306.54 560.84 306.31 558.63 306.3C558.09 306.3 557.81 305.89 557.71 305.42C557.5 304.5 557.08 303.69 556.56 302.91C554.459 299.75 549.92 299.19 546.87 302.26C545.63 303.51 545.22 305.15 545.49 306.9C545.75 308.59 546.46 310.05 547.65 311.33C550.5 314.4 553.58 317.23 556.66 320.06C558.5 321.75 560.38 323.42 562.2 325.06C563.03 324.92 563.25 324.24 563.6 323.73C565.06 321.58 566.53 319.43 567.95 317.25C568.35 316.64 568.81 316.33 569.54 316.33C571.66 316.34 573.79 316.33 576.2 316.33C574.98 319.06 573.31 321.15 571.91 323.4C570.54 325.6 569.1 327.76 567.61 330.07C568.77 331.16 569.84 332.18 570.93 333.18C572.77 334.89 574.62 336.58 576.45 338.3C576.55 338.4 576.57 338.63 576.57 338.79C576.57 339.02 576.41 339.1 576.18 339.1C573.48 339.1 570.79 339.1 568.09 339.12C567.27 339.12 566.71 338.62 566.15 338.13C565.1 337.22 564.07 336.3 563.12 335.45C562.36 335.51 561.98 335.95 561.54 336.26C558.28 338.61 554.63 339.83 550.62 339.96C548.2 340.04 545.8 339.93 543.43 339.3C541.05 338.66 538.92 337.55 537.06 335.97C534.12 333.46 532.81 330.21 532.81 326.36C532.81 321.95 534.54 318.45 538.14 315.89C538.67 315.51 539.22 315.17 539.75 314.8C540.58 314.22 540.61 314.07 540.15 313.25C539.6 312.28 539.01 311.33 538.54 310.33C536.07 305.12 538.47 299.3 542.05 296.56C544.42 294.75 547.08 293.79 550.01 293.52ZM546.35 320.06C545.41 319.21 545.19 319.18 544.18 319.86C543.41 320.37 542.65 320.94 542.03 321.61C539.33 324.55 539.69 328.69 542.78 331.19C543.81 332.02 544.961 332.67 546.23 332.95C550.32 333.86 554.1 333.17 557.47 330.66H557.48C557.34 329.79 556.66 329.54 556.2 329.11C552.93 326.08 549.65 323.06 546.35 320.06Z" fill="#897C73"/>
</svg>
